#N canvas 536 81 778 683 10;
#X obj 234 255 route analog;
#X obj 234 305 mapping/resample 100;
#X obj 234 277 route 0;
#X msg 266 51 close;
#X msg 276 76 info;
#X text 329 103 <- list devices;
#X msg 276 102 devices;
#X text 310 76 <- info for current connection;
#X msg 276 128 version;
#N canvas 0 22 467 240 ver 0;
#X obj 250 100 cnv 15 145 17 empty \$0-version_cnv empty 4 10 0 12
-203904 -1 0;
#X obj 23 157 send \$0-version_cnv;
#X msg 23 132 label \$1;
#X obj 23 52 zexy/makesymbol firmata_version_%s.%s;
#X obj 48 103 symbol;
#X obj 38 77 loadbang;
#X msg 96 78 bang;
#X obj 23 29 route version;
#X obj 23 6 receive \$0-arduino-out;
#X connect 2 0 1 0;
#X connect 3 0 2 0;
#X connect 4 0 2 0;
#X connect 5 0 4 0;
#X connect 6 0 4 0;
#X connect 7 0 3 0;
#X connect 8 0 7 0;
#X coords 0 -1 1 1 145 17 1 250 100;
#X restore 343 176 pd ver;
#X text 328 128 <- get protocol version;
#X text 328 153 <- get firmware version;
#X msg 276 153 firmware;
#X text 297 29 select the serial port;
#X text 317 51 close the serial port;
#X msg 249 31 open 0;
#X obj 234 176 arduino 1;
#X text 488 597 check www.estereotips.net for the circuits;
#X floatatom 234 339 5 0 0 0 - - -;
#X obj 237 363 hsl 128 15 0 1 0 0 empty empty empty -2 -8 0 10 -262144
-1 -1 74 1;
#X connect 0 0 2 0;
#X connect 1 0 18 0;
#X connect 2 0 1 0;
#X connect 3 0 16 0;
#X connect 4 0 16 0;
#X connect 6 0 16 0;
#X connect 8 0 16 0;
#X connect 12 0 16 0;
#X connect 15 0 16 0;
#X connect 16 0 0 0;
#X connect 18 0 19 0;
