#N canvas 4 81 648 300 10;
#X declare -lib mrpeach;
#X obj 484 47 import mrpeach;
#X obj 220 216 udpsend;
#X msg 316 172 disconnect;
#X obj 220 142 packOSC;
#X obj 220 251 tgl 15 0 empty empty 1=connected 20 8 0 8 -4034 -257985
-1 1 1;
#X text 273 235 see:;
#X msg 58 158 connect 127.0.0.1 90005;
#X msg 220 114 send /wii/acc/x \$1;
#X floatatom 220 84 5 0 0 0 - - -;
#X text -27 131 numero IP y Puerto adonde conectarse;
#X text 328 154 para desconectarse;
#X connect 1 0 4 0;
#X connect 2 0 1 0;
#X connect 3 0 1 0;
#X connect 6 0 1 0;
#X connect 7 0 3 0;
#X connect 8 0 7 0;
